<svg fill="none" height="24" viewBox="0 0 24 24" width="24" xmlns="http://www.w3.org/2000/svg"><g fill="#1c274c"><path d="m11.6311 10.4879c1.0389 0 1.8811.8422 1.8811 1.881 0 1.0389-.8422 1.8811-1.8811 1.8811s-1.8811-.8422-1.8811-1.8811c0-1.0388.8422-1.881 1.8811-1.881z"/><path clip-rule="evenodd" d="m12 22c5.5228 0 10-4.4772 10-10 0-5.52285-4.4772-10-10-10-5.52285 0-10 4.47715-10 10 0 5.5228 4.47715 10 10 10zm2.487-18.71553c-.2278-.07155-.4761-.03035-.6686.11095s-.3062.36581-.3062.60459v5.55905c-.5378-.36074-1.1848-.57117-1.8811-.57117-1.86731 0-3.3811 1.51371-3.3811 3.38101 0 1.8674 1.51379 3.3811 3.3811 3.3811 1.8673 0 3.3811-1.5137 3.3811-3.3811v-7.2752c2.0267.94363 3.5942 2.70999 4.2723 4.86868.1241.39522.5451.61492.9402.49082.3952-.1241.615-.54512.4908-.9403-.9302-2.96161-3.2669-5.29825-6.2285-6.22843z" fill-rule="evenodd"/></g></svg>